<!--?xml version="1.0" encoding="utf-8"?-->
<!-- Generator: Adobe Illustrator 18.1.1, SVG Export Plug-In . SVG Version: 6.00 Build 0)  -->

<svg version="1.1" id="_x32_" xmlns="http://www.w3.org/2000/svg" xmlns:xlink="http://www.w3.org/1999/xlink" x="0px" y="0px" viewBox="0 0 512 512" style="width: 256px; height: 256px; opacity: 1;" xml:space="preserve">
<style type="text/css">
	.st0{fill:#4B4B4B;}
</style>
<g>
	<path class="st0" d="M393.795,279.376l107.978-81.724l-139.612-22.433l46.162-84.647l-94.348,36.459L297.914,0l-68.719,104.192
		L174.678,51.63l-1.946,70.092L50.068,65.25l50.441,133.468L18.019,221.9l73.985,50.618L10.227,360.13l109.036,9.738L92.004,478.904
		l107.811-55.293L241.927,512l36.988-89.56l149.923,62.309l-59.615-142.923l105.152-2.915L393.795,279.376z M331.486,264.725
		l36.996,36.996l-54.518,5.846l25.313,77.876l-75.93-42.833l-17.521,54.517l-19.476-48.671l-68.147,38.934l21.412-56.455
		l-66.192-5.846l54.518-52.571L129,243.312l50.617-9.738l-36.988-72.038l66.192,40.888l9.738-35.042l19.476,19.467l27.25-38.942
		l9.738,58.409l44.788-19.467L308.127,221.9l75.93,5.838L331.486,264.725z" style="fill: rgb(0, 0, 0);"></path>
</g>
</svg>
