<!--?xml version="1.0" encoding="utf-8"?-->
<!-- Generator: Adobe Illustrator 18.1.1, SVG Export Plug-In . SVG Version: 6.00 Build 0)  -->

<svg version="1.1" id="_x32_" xmlns="http://www.w3.org/2000/svg" xmlns:xlink="http://www.w3.org/1999/xlink" x="0px" y="0px" viewBox="0 0 512 512" style="width: 256px; height: 256px; opacity: 1;" xml:space="preserve">
<style type="text/css">
	.st0{fill:#4B4B4B;}
</style>
<g>
	
		<rect x="229.299" y="68.938" transform="matrix(0.9508 0.3099 -0.3099 0.9508 45.8591 -67.3725)" class="st0" width="11.323" height="83.401" style="fill: rgb(0, 0, 0);"></rect>
	
		<rect x="374.51" y="222.521" transform="matrix(-0.312 -0.9501 0.9501 -0.312 253.9307 699.3111)" class="st0" width="11.324" height="70.383" style="fill: rgb(0, 0, 0);"></rect>
	
		<rect x="309.498" y="68.937" transform="matrix(-0.8236 -0.5672 0.5672 -0.8236 511.0866 383.349)" class="st0" width="11.318" height="86.52" style="fill: rgb(0, 0, 0);"></rect>
	<polygon class="st0" points="308.745,223.942 423.649,145.265 417.244,135.928 302.341,214.604 	" style="fill: rgb(0, 0, 0);"></polygon>
	<polygon class="st0" points="466.557,202.073 448.39,213.798 428.425,205.474 433.969,226.376 419.886,242.785 441.479,243.983 
		452.721,262.45 460.537,242.278 481.577,237.28 464.807,223.619 	" style="fill: rgb(0, 0, 0);"></polygon>
	<polygon class="st0" points="354.909,121.907 344.098,117.408 347.093,128.726 339.46,137.618 351.162,138.27 357.258,148.276 
		361.498,137.349 372.892,134.638 363.802,127.236 364.754,115.557 	" style="fill: rgb(0, 0, 0);"></polygon>
	<polygon class="st0" points="368.316,225.907 373.047,233.67 376.332,225.193 385.178,223.089 378.129,217.345 378.867,208.285 
		371.218,213.214 362.834,209.713 365.168,218.505 359.24,225.408 	" style="fill: rgb(0, 0, 0);"></polygon>
	<polygon class="st0" points="269.046,171.243 273.776,178.998 277.062,170.521 285.908,168.417 278.859,162.673 279.597,153.613 
		271.948,158.542 263.563,155.04 265.882,163.833 259.954,170.736 	" style="fill: rgb(0, 0, 0);"></polygon>
	<polygon class="st0" points="195.376,103.985 200.107,111.741 203.394,103.263 212.239,101.16 205.19,95.416 205.927,86.355 
		198.28,91.284 189.894,87.783 192.229,96.576 186.301,103.478 	" style="fill: rgb(0, 0, 0);"></polygon>
	<polygon class="st0" points="390.323,296.021 384.626,288.934 382.476,297.772 373.968,300.997 381.693,305.781 382.138,314.865 
		389.079,308.99 397.864,311.371 394.408,302.955 399.4,295.353 	" style="fill: rgb(0, 0, 0);"></polygon>
	<polygon class="st0" points="258.127,53.044 267.08,67.726 273.285,51.694 290.009,47.716 276.679,36.858 278.076,19.719 
		263.625,29.041 247.746,22.422 252.154,39.047 240.957,52.092 	" style="fill: rgb(0, 0, 0);"></polygon>
	<polygon class="st0" points="350.502,49.144 358.657,74.107 373.507,52.461 399.768,52.414 383.766,31.598 391.844,6.619 
		367.103,15.404 345.833,0 346.555,26.246 325.315,41.711 	" style="fill: rgb(0, 0, 0);"></polygon>
	<polygon class="st0" points="442.062,144.92 458.94,133.694 477.753,141.227 472.285,121.715 485.262,106.143 465.006,105.306 
		454.226,88.159 447.176,107.157 427.519,112.124 443.414,124.694 	" style="fill: rgb(0, 0, 0);"></polygon>
	<path class="st0" d="M304.122,265.913c-10.32-13.699-23.005-28.196-37.441-42.602c-19.197-19.227-38.547-35.376-55.993-46.925
		c-8.769-5.797-17.047-10.419-24.786-13.698c-7.74-3.264-14.897-5.275-21.9-5.299c-3.071,0-6.142,0.407-9.076,1.452
		c-2.948,1.014-5.759,2.71-8.047,5.022c-2.304,2.288-4.008,5.098-5.022,8.039c-0.768,2.15-1.182,4.369-1.367,6.612l-13.714,44.075
		l-1.367,4.369l-11.026,35.353v0.023l-9.307,29.916v0.023l-14.068,45.112l-0.814,2.604v0.031l-0.016,0.038l-5.467,17.461v0.023
		l-16.263,52.231c-3.886,2.918-7.172,5.844-9.952,8.807c-5.512,5.866-8.999,11.978-10.918,17.983
		c-1.935,5.997-2.365,11.726-2.365,16.916c0,5.006,0.369,9.552,0.369,13.699c0,2.81-0.154,5.436-0.584,7.932
		c-0.706,3.755-1.95,7.218-4.607,11.073c-2.672,3.846-6.88,8.085-13.652,12.7L35.66,512c5.33-3.625,9.645-7.295,13.131-11.05
		c5.237-5.621,8.569-11.549,10.396-17.346c1.843-5.797,2.243-11.372,2.243-16.424c0-4.984-0.353-9.529-0.353-13.699
		c0-2.903,0.153-5.621,0.629-8.201c0.722-3.893,2.043-7.564,4.899-11.641c2.319-3.302,5.775-6.903,10.842-10.78l33.434-10.505
		l31.359-9.852h0.016l13.407-4.215l32.711-10.282l56.838-17.868l32.758-10.282l32.88-10.328c2.442-0.13,4.899-0.538,7.249-1.382
		c2.948-1.014,5.759-2.718,8.032-5.029h0.03c2.288-2.281,3.993-5.091,5.006-8.04c1.044-2.941,1.444-5.997,1.444-9.076
		c-0.016-6.996-2.043-14.16-5.299-21.9C322.397,292.504,314.427,279.643,304.122,265.913z M90.563,399.737l5.636-18.122
		l6.788,14.229L90.563,399.737z M135.744,385.562l-24.664-51.686l5.483-17.553l31.206,65.453L135.744,385.562z M192.566,367.718
		l-12.071,3.777l-49.082-102.886l5.482-17.577l0.046-0.138l55.624,116.816V367.718z M225.308,357.428v0.007l-54.104-113.353
		l0.031,0.024c8.708,11.318,18.998,23.098,30.485,34.876l35.644,74.668L225.308,357.428z M270.09,343.368l-5.344-11.188
		c4.976,3.171,9.783,5.936,14.39,8.332L270.09,343.368z M314.089,329.055c-0.092,0.223-0.153,0.407-0.245,0.545l-5.867,1.858
		c-3.272-0.207-8.093-1.405-13.791-3.832c-9.537-4.031-21.47-11.279-34.355-20.993c-3.809-2.879-7.71-5.951-11.672-9.237
		c-9.444-7.817-19.242-16.762-29.026-26.522c-2.933-2.918-5.759-5.844-8.524-8.739c-14.712-15.565-27.136-30.868-36.104-44.46
		c-5.314-8.063-9.43-15.511-12.132-21.854c-2.565-6.004-3.732-11.026-3.824-14.29l1.628-5.26c0.2-0.108,0.43-0.222,0.767-0.361
		c0.63-0.222,1.628-0.407,3.056-0.407c3.226-0.046,8.493,1.137,14.835,3.855c9.537,4.031,21.47,11.272,34.355,20.993
		c12.916,9.714,26.814,21.9,40.697,35.76c18.49,18.498,33.97,37.072,44.613,53.221c5.329,8.04,9.445,15.488,12.148,21.831
		c2.718,6.342,3.885,11.618,3.84,14.835C314.489,327.427,314.32,328.418,314.089,329.055z" style="fill: rgb(0, 0, 0);"></path>
</g>
</svg>
