<!--?xml version="1.0" encoding="utf-8"?-->
<!-- Generator: Adobe Illustrator 18.1.1, SVG Export Plug-In . SVG Version: 6.00 Build 0)  -->

<svg version="1.1" id="_x32_" xmlns="http://www.w3.org/2000/svg" xmlns:xlink="http://www.w3.org/1999/xlink" x="0px" y="0px" viewBox="0 0 512 512" style="width: 256px; height: 256px; opacity: 1;" xml:space="preserve">
<style type="text/css">
	.st0{fill:#4B4B4B;}
</style>
<g>
	<path class="st0" d="M456.606,367.945c-2.038-91.732-36.692-120.27-57.762-133.178c-61.505-37.688-200.567,3.081-224.009-66.227
		c-25.815-5.439-33.762-23.897-33.762-23.897c33.523,16.547,55.532,5.646,57.236,1.051c1.688-4.594-28.475-29.55-31.262-38.922
		c-1.29-4.316-22.861-35.554-29.669-40.412c-6.808-4.864-36.534-18.967-40.324-21.404C93.248,42.521,67.289,0.104,64.2,0
		c-3.09-0.095-19.604,15.424-16.833,25.576c1.035,3.798,13.314,43.756,13.314,43.756S33.416,50.66,28.813,48.971
		c-4.586-1.688-10.248,7.374-1.306,16.984c31.596,33.93,37.155,68.855,37.712,96.104c2.038,99.885,12.566,118.232,27.52,167.155
		c0,0,23.746,55.253,26.158,64.554c4.419,16.985,13.592,20.042,12.573,48.581c-0.199,5.438,4.077,45.866-22.088,47.911
		c-9.086,0.71,4.077,21.739,12.231,21.739c8.154,0,28.539,0,28.539,0c4.555-16.308,7.827-33.054,11.753-49.529
		c2.42-10.184,5.207-23.999,5.304-28.275c0.142-6.76-3.146-27.79-5.041-44.218c-1.266-10.972-5.781-38.524-6.236-49.552
		c-0.461-11.188,13.808,16.65,13.808,16.65h112.116c0,0-8.664-31.406-2.596-34.996c16.866,53.024,51.599,89.198,53,94.789
		c5.574,22.328-5,69.356-31.262,73.392c-9.006,1.386,4.077,21.739,12.231,21.739c8.154,0,28.538,0,28.538,0l19.03-44.17
		c16.985-42.131,11.547-41.454,5.431-78.139c-2.246-13.474,21.746-69.308,23.108-76.1c0,0-1.481,29.916-1.481,39.089
		c0,19.788,4.077,30.577,2.5,44.823c-5.677,51.304,34.989,121.974,98.866,92.751C466.798,480.061,458.644,459.676,456.606,367.945z" style="fill: rgb(0, 0, 0);"></path>
</g>
</svg>
